REM DIRINDEX 1\2\6,1\2\7,1\2\8,1\2\9,1\3\10,1\3\11,1\4\12,1\4\13,1\4\14,1\5\15,1\5\16,1\5\17
REM DIRNAME cjc020,folder01,folder02,folder03,folder04,folder05,folder06,folder07,folder08,folder09,folder10,folder11,folder12,folder13,folder14,folder15,folder16
TITLE ""
FILE "1900_3_040 sec07_0648_0665.mp3" MP3
  TRACK 01 AUDIO
    TITLE "0:"
    INDEX 01 00:00:00
  TRACK 02 AUDIO
    TITLE "17:cjc020_7268"
    INDEX 01 00:00:19
  TRACK 03 AUDIO
    TITLE "0:"
    INDEX 01 00:01:28
  TRACK 04 AUDIO
    TITLE "16:cjc020_7269"
    INDEX 01 00:01:32
  TRACK 05 AUDIO
    TITLE "0:"
    INDEX 01 00:03:00
  TRACK 06 AUDIO
    TITLE "17:cjc020_7270"
    INDEX 01 00:03:59
  TRACK 07 AUDIO
    TITLE "0:"
    INDEX 01 00:06:33
  TRACK 08 AUDIO
    TITLE "16:cjc020_7271"
    INDEX 01 00:06:39
  TRACK 09 AUDIO
    TITLE "0:"
    INDEX 01 00:07:56
  TRACK 10 AUDIO
    TITLE "17:cjc020_7272"
    INDEX 01 00:08:40
  TRACK 11 AUDIO
    TITLE "0:"
    INDEX 01 00:09:42
  TRACK 12 AUDIO
    TITLE "16:cjc020_7273"
    INDEX 01 00:09:53
  TRACK 13 AUDIO
    TITLE "0:"
    INDEX 01 00:10:55
  TRACK 14 AUDIO
    TITLE "17:cjc020_7274"
    INDEX 01 00:11:39
  TRACK 15 AUDIO
    TITLE "0:"
    INDEX 01 00:12:56
  TRACK 16 AUDIO
    TITLE "16:cjc020_7275"
    INDEX 01 00:12:63
  TRACK 17 AUDIO
    TITLE "0:"
    INDEX 01 00:13:71
  TRACK 18 AUDIO
    TITLE "17:cjc020_7276"
    INDEX 01 00:14:54
  TRACK 19 AUDIO
    TITLE "0:"
    INDEX 01 00:17:06
  TRACK 20 AUDIO
    TITLE "16:cjc020_7277"
    INDEX 01 00:17:12
  TRACK 21 AUDIO
    TITLE "0:"
    INDEX 01 00:18:17
  TRACK 22 AUDIO
    TITLE "17:cjc020_7278"
    INDEX 01 00:19:05
  TRACK 23 AUDIO
    TITLE "0:"
    INDEX 01 00:20:39
  TRACK 24 AUDIO
    TITLE "16:cjc020_7279"
    INDEX 01 00:20:41
  TRACK 25 AUDIO
    TITLE "0:"
    INDEX 01 00:21:58
  TRACK 26 AUDIO
    TITLE "17:cjc020_7280"
    INDEX 01 00:22:42
  TRACK 27 AUDIO
    TITLE "0:"
    INDEX 01 00:24:61
  TRACK 28 AUDIO
    TITLE "16:cjc020_7281"
    INDEX 01 00:24:69
  TRACK 29 AUDIO
    TITLE "0:"
    INDEX 01 00:26:01
  TRACK 30 AUDIO
    TITLE "17:cjc020_7282"
    INDEX 01 00:26:62
  TRACK 31 AUDIO
    TITLE "0:"
    INDEX 01 00:28:27
  TRACK 32 AUDIO
    TITLE "16:cjc020_7283"
    INDEX 01 00:28:33
  TRACK 33 AUDIO
    TITLE "0:"
    INDEX 01 00:29:46
  TRACK 34 AUDIO
    TITLE "17:cjc020_7284"
    INDEX 01 00:30:30
  TRACK 35 AUDIO
    TITLE "0:"
    INDEX 01 00:31:35
  TRACK 36 AUDIO
    TITLE "16:cjc020_7285"
    INDEX 01 00:31:41
  TRACK 37 AUDIO
    TITLE "0:"
    INDEX 01 00:32:45
  TRACK 38 AUDIO
    TITLE "17:cjc020_7286"
    INDEX 01 00:33:32
  TRACK 39 AUDIO
    TITLE "0:"
    INDEX 01 00:34:32
  TRACK 40 AUDIO
    TITLE "16:cjc020_7287"
    INDEX 01 00:34:38
  TRACK 41 AUDIO
    TITLE "0:"
    INDEX 01 00:35:35
  TRACK 42 AUDIO
    TITLE "17:cjc020_7288"
    INDEX 01 00:36:19
  TRACK 43 AUDIO
    TITLE "0:"
    INDEX 01 00:37:30
  TRACK 44 AUDIO
    TITLE "16:cjc020_7289"
    INDEX 01 00:37:34
  TRACK 45 AUDIO
    TITLE "0:"
    INDEX 01 00:38:37
  TRACK 46 AUDIO
    TITLE "17:cjc020_7290"
    INDEX 01 00:39:19
  TRACK 47 AUDIO
    TITLE "0:"
    INDEX 01 00:40:38
  TRACK 48 AUDIO
    TITLE "16:cjc020_7291"
    INDEX 01 00:40:42
  TRACK 49 AUDIO
    TITLE "0:"
    INDEX 01 00:41:40
  TRACK 50 AUDIO
    TITLE "17:cjc020_7292"
    INDEX 01 00:42:27
  TRACK 51 AUDIO
    TITLE "0:"
    INDEX 01 00:43:25
  TRACK 52 AUDIO
    TITLE "16:cjc020_7293"
    INDEX 01 00:43:33
  TRACK 53 AUDIO
    TITLE "0:"
    INDEX 01 00:44:36
  TRACK 54 AUDIO
    TITLE "17:cjc020_7294"
    INDEX 01 00:45:22
  TRACK 55 AUDIO
    TITLE "0:"
    INDEX 01 00:46:17
  TRACK 56 AUDIO
    TITLE "16:cjc020_7295"
    INDEX 01 00:46:23
  TRACK 57 AUDIO
    TITLE "0:"
    INDEX 01 00:47:23
  TRACK 58 AUDIO
    TITLE "17:cjc020_7296"
    INDEX 01 00:48:10
  TRACK 59 AUDIO
    TITLE "0:"
    INDEX 01 00:49:23
  TRACK 60 AUDIO
    TITLE "16:cjc020_7297"
    INDEX 01 00:49:27
  TRACK 61 AUDIO
    TITLE "0:"
    INDEX 01 00:50:35
  TRACK 62 AUDIO
    TITLE "17:cjc020_7298"
    INDEX 01 00:51:22
  TRACK 63 AUDIO
    TITLE "0:"
    INDEX 01 00:52:08
  TRACK 64 AUDIO
    TITLE "16:cjc020_7299"
    INDEX 01 00:52:12
  TRACK 65 AUDIO
    TITLE "0:"
    INDEX 01 00:53:33
  TRACK 66 AUDIO
    TITLE "17:cjc020_7300"
    INDEX 01 00:54:17
  TRACK 67 AUDIO
    TITLE "0:"
    INDEX 01 00:56:72
  TRACK 68 AUDIO
    TITLE "16:cjc020_7301"
    INDEX 01 00:57:03
  TRACK 69 AUDIO
    TITLE "0:"
    INDEX 01 00:58:01
  TRACK 70 AUDIO
    TITLE "17:cjc020_7302"
    INDEX 01 00:58:62
  TRACK 71 AUDIO
    TITLE "0:"
    INDEX 01 00:59:69
  TRACK 72 AUDIO
    TITLE "16:cjc020_7303"
    INDEX 01 01:00:04
  TRACK 73 AUDIO
    TITLE "0:"
    INDEX 01 01:01:09
